<mxfile host="app.diagrams.net" modified="2022-10-21T04:53:50.112Z" agent="5.0 (X11)" etag="JVfD1W-itqvI9EYsB2M-" version="20.4.2" type="github">
  <diagram id="M2FlMD3nGxHvHR8v5HWW" name="Page-1">
    <mxGraphModel dx="2370" dy="2357" grid="1" gridSize="10" guides="1" tooltips="1" connect="1" arrows="1" fold="1" page="1" pageScale="1" pageWidth="850" pageHeight="1100" math="0" shadow="0">
      <root>
        <mxCell id="0" />
        <mxCell id="1" parent="0" />
        <mxCell id="EyfO6nV798qz1CIs0pT1-3" value="" style="rounded=0;whiteSpace=wrap;html=1;" vertex="1" parent="1">
          <mxGeometry y="-1020" width="1160" height="680" as="geometry" />
        </mxCell>
        <mxCell id="EyfO6nV798qz1CIs0pT1-4" value="" style="rounded=0;whiteSpace=wrap;html=1;" vertex="1" parent="1">
          <mxGeometry x="20" y="-1000" width="1110" height="100" as="geometry" />
        </mxCell>
        <mxCell id="EyfO6nV798qz1CIs0pT1-5" value="nav button" style="rounded=0;whiteSpace=wrap;html=1;" vertex="1" parent="1">
          <mxGeometry x="40" y="-980" width="120" height="60" as="geometry" />
        </mxCell>
        <mxCell id="EyfO6nV798qz1CIs0pT1-6" value="nav button" style="rounded=0;whiteSpace=wrap;html=1;" vertex="1" parent="1">
          <mxGeometry x="990" y="-980" width="120" height="60" as="geometry" />
        </mxCell>
        <mxCell id="EyfO6nV798qz1CIs0pT1-7" value="nav button" style="rounded=0;whiteSpace=wrap;html=1;" vertex="1" parent="1">
          <mxGeometry x="515" y="-980" width="120" height="60" as="geometry" />
        </mxCell>
        <mxCell id="EyfO6nV798qz1CIs0pT1-8" value="nav button" style="rounded=0;whiteSpace=wrap;html=1;" vertex="1" parent="1">
          <mxGeometry x="270" y="-980" width="120" height="60" as="geometry" />
        </mxCell>
        <mxCell id="EyfO6nV798qz1CIs0pT1-9" value="nav button" style="rounded=0;whiteSpace=wrap;html=1;" vertex="1" parent="1">
          <mxGeometry x="750" y="-980" width="120" height="60" as="geometry" />
        </mxCell>
        <mxCell id="EyfO6nV798qz1CIs0pT1-10" value="&lt;font style=&quot;font-size: 38px;&quot;&gt;Account page&lt;br&gt;&lt;/font&gt;" style="text;html=1;strokeColor=none;fillColor=none;align=center;verticalAlign=middle;whiteSpace=wrap;rounded=0;" vertex="1" parent="1">
          <mxGeometry x="400" y="-1070" width="350" height="30" as="geometry" />
        </mxCell>
      </root>
    </mxGraphModel>
  </diagram>
</mxfile>
